<?xml version="1.0" standalone="no"?><svg xmlns="http://www.w3.org/2000/svg" viewBox="0 0 1440 320"><path fill="#ec4e31" fill-opacity="1" d="M0,224L40,234.7C80,245,160,267,240,256C320,245,400,203,480,197.3C560,192,640,224,720,213.3C800,203,880,149,960,128C1040,107,1120,117,1200,106.7C1280,96,1360,64,1400,48L1440,32L1440,320L1400,320C1360,320,1280,320,1200,320C1120,320,1040,320,960,320C880,320,800,320,720,320C640,320,560,320,480,320C400,320,320,320,240,320C160,320,80,320,40,320L0,320Z"></path></svg>